<?xml version="1.0"?><svg version="1.2" baseProfile="tiny-ps" viewBox="0 0 282 282" xmlns="http://www.w3.org/2000/svg" xmlns:xlink="http://www.w3.org/1999/xlink"><title>relso</title><g><g fill="#fff" transform="matrix(.1 0 0 -.1 0 282)"><path d="M0 1410V0h2820v2820H0V1410z"/></g><g fill="#d1d1d1" transform="matrix(.1 0 0 -.1 0 282)"><path d="M0 2360v-460h2820v920H0v-460zm190-763c0-101 3-225 6-275l7-92h134l7 86c3 48 10 93 15 101l8 15 39-61c21-34 51-80 66-101l27-38 31-7 32-7 34 6 34 7v12c0 7-22 51-49 99l-48 87 33 32c18 18 40 47 49 65l15 32v87l-18 35-17 34-34 20c-18 10-59 25-90 32l-56 14H190v-183zm253 52c28-15 37-28 37-55v-21l-17-15c-23-20-61-29-90-22l-23 6v52c0 29 3 56 7 59 10 11 62 8 86-4zm277-149v-280h370v98l-15 12-14 12-81 5-80 6-16 11-16 12-1 34-2 35 92 3 91 3 12 14 12 14-7 30c-3 16-13 35-21 41l-14 12-67 5c-38 3-76 10-85 15l-18 9v22c0 13 5 28 12 35l12 12h206v120H720v-280zm460 0v-280h360v140h-197l-6 68c-4 37-7 128-7 203v136l-37 7c-21 3-55 6-75 6h-38v-280zm525 266c-40-18-80-63-100-109l-16-39 11-34 11-34 41-34 40-34 71-27c40-14 80-34 90-42l17-16v-45l-15-12-15-12-35 6-35 7-30 29-31 30h-88l-15-16c-20-20-20-22 3-60 40-65 118-104 211-104 96 0 163 37 200 111 24 47 25 80 3 126l-17 36-45 29-46 29-68 20-68 20-20 20-21 21 18 19 17 19h77l22-22 21-21 46-4 46-5 20 15 20 16-19 36-20 36-45 27-44 26-81 3-81 3-30-14zm575-1-46-14-42-37-43-36-26-52-27-51v-70l-1-70 28-57 28-57 40-35 40-34 58-16c71-20 123-20 187-1l50 15 43 37 44 37 23 50 24 51v140l-24 50-23 50-34 34c-19 18-54 43-79 54l-45 20-65 3-65 4-45-15zm158-127 26-13 23-34 23-34v-110l-26-35-27-34-43-19-42-19-24 9c-13 5-38 25-56 45l-31 36-7 35c-3 20-4 53-1 73l6 37 46 44 46 43 31-6c16-3 42-12 56-18zM0 560V0h2820v1120H0V560z"/></g><g fill="#c6c6c6" transform="matrix(.1 0 0 -.1 0 282)"><path d="M0 1915v-15h2820v30H0v-15zm190-282c0-82 3-205 7-275l6-128h134l6 85c3 47 10 93 15 102l10 17 47-75c26-41 54-84 62-97l14-23 27-10 27-10 43 6 43 6-6 20c-4 10-26 54-50 96l-43 78 33 35c18 19 40 49 49 67l16 32v86l-18 35-17 34-45 23c-61 31-133 43-256 43H190v-147zm277 1c7-10 13-28 13-39v-22l-17-16c-10-8-30-18-45-22l-27-7-20 7-21 6v53c0 29 3 56 8 60l7 8 44-5 45-5 13-18zm253-134v-280l183 2 182 3 3 46 3 46-14 11-14 12-85 6c-48 4-92 10-98 14l-13 8-1 38-1 39 92 5 92 5 12 12 11 11-7 30c-3 17-12 35-19 41l-12 10-69 7c-39 4-78 11-87 16l-18 9v57l16 6c9 3 60 6 115 6h99v120H720v-280zm460 1v-281h360v140h-197l-7 38c-3 20-6 110-6 199v162l-10 6c-5 3-39 8-75 12l-65 6v-282zm520 260-35-18-32-42-33-43v-87l30-34 29-34 63-28c35-15 82-36 104-46l42-20 6-22 5-21-16-18-16-18h-24c-30 0-73 22-95 49l-18 21h-78l-23-19-23-18 20-34 20-34 46-31 47-32 55-6 55-7 46 6 45 7 39 28 38 28 22 44c11 24 21 55 21 69 0 33-31 81-73 113l-34 26-73 25c-77 26-120 49-120 65 0 4 7 16 16 24l15 16h76l29-22 29-23h96l9 15c14 23 13 27-26 70l-36 40-51 15-51 15h-111l-35-19zm595 8-40-9-50-38-50-38-29-58-30-58v-133l21-46c11-25 34-61 51-81l32-35 48-21c26-11 70-24 98-27l51-7 57 12 56 12 42 32 43 32 30 49 30 48v182l-27 47-28 46-42 36-42 36-50 15-50 15-40-1c-23-1-59-5-81-10zm151-134c32-20 54-56 65-102l8-38-10-37-9-37-41-35c-22-19-52-37-65-40l-25-7-32 16-33 15-27 42-27 42v99l20 33c12 18 35 42 53 54l32 21 34-5c18-3 44-12 57-21zM0 1070v-50h2820v100H0v-50z"/></g><g fill="#aeaeae" transform="matrix(.1 0 0 -.1 0 282)"><path d="M702 1903c390-2 1026-2 1415 0 390 1 71 2-707 2s-1097-1-708-2zm-512-246c0-68 3-192 7-276l6-152 66 3 66 3 7 89 8 90 9 9 9 9 29-44c17-23 43-65 58-92l28-48 35-15 35-14 38 6c22 4 39 9 39 13 0 3-22 47-49 98l-50 92 31 28c17 16 39 47 49 69l19 40v76l-19 37-19 37-31 18c-17 10-61 24-98 32l-68 15H190v-123zm270-17 20-20v-47l-17-16c-10-8-30-18-45-22l-27-7-20 7-21 6v53c0 29 3 56 7 59 3 4 24 7 45 7h38l20-20zm262-137 3-278h360l3 37 3 37-10 20-11 19-89 7c-49 4-94 11-101 15l-13 8-1 38-1 39 90 5c50 3 96 9 103 13l13 9-6 31c-4 18-12 37-19 44l-11 12-75 7-75 7-12 10-13 9v56l16 6c9 3 60 6 115 6h99v120H720l2-277zm458-2v-281h360v140h-198l-6 23c-3 12-6 99-6 192v170l-8 12-8 12-67 7-67 7v-282zm521 257-43-21-29-40-29-40v-86l30-34 29-34 63-27c35-15 80-35 101-43l38-17 10-18 10-19-6-19-6-19-20-6-21-7-32 6-33 6-27 30-26 30h-36c-19 0-44-5-55-10l-19-11v-20c0-12 9-34 21-50l20-29 46-27 45-26h177l38 26c42 30 78 78 88 119l7 27-12 35-11 36-41 34-41 35-81 27c-76 25-116 47-116 65 0 4 7 15 16 23l15 16h83l24-22 24-23h99l8 14 9 14-5 16c-3 9-20 31-37 49l-30 33-50 14-50 15h-101l-44-22zm581 4-53-19-37-30-37-30-30-57-29-58 1-66v-67l17-38c8-21 29-56 46-77l31-39 56-27 56-28h162l51 27 52 26 31 38 30 37 16 45 15 45v102l-16 47-16 46-39 45-39 44-44 21-43 22-64 5-64 5-53-19zm142-116 33-14 21-27c12-15 27-46 33-68l11-41-11-37-11-37-39-35-39-35-31-7-31-7-33 21-33 20-22 39-22 40v97l20 33 20 32 32 20c39 24 57 25 102 6zM0 1090v-30h2820v60H0v-30z"/></g><g fill="gray" transform="matrix(.1 0 0 -.1 0 282)"><path d="m194 1513 8-268 7-8 8-8 59 3 59 3 7 87c3 48 9 92 13 98l7 11 14-12c8-6 37-49 64-94l50-83 16-6c21-8 124-8 124 1 0 3-22 48-50 98l-49 92 29 28c17 16 40 48 51 73l21 43-5 46-5 45-19 27c-11 14-38 36-60 48l-40 23-69 10c-38 5-109 10-158 10h-89l7-267zm264 131 22-15v-27c0-15-4-32-8-38-12-18-49-34-81-34h-30l-6 10c-4 6-7 31-7 55s3 49 7 55l6 10h75l22-16zm262-139v-275h373l-6 46-5 46-13 8c-7 5-50 12-96 15l-84 7-15 15-15 16 3 31 3 31 65 2c36 2 80 5 98 8l32 6v78l-17 10c-10 5-47 12-83 16-36 3-73 9-83 12l-18 5 3 36 3 37 110 5 110 5v110l-182 3-183 2v-275zm460 1v-276h360v130h-208l-4 199c-2 110-6 202-8 204-3 3-35 8-72 12l-68 7v-276zm545 264c-38-13-67-37-99-85l-26-38v-77l38-38 37-37 93-39 92-38 11-19 10-20-6-19-6-19-20-6-21-7-33 6-34 7-20 25-20 26-39 5-39 5-22-11-21-12v-46l38-37c20-21 50-45 66-53l28-15 100 4 100 3 48 52 48 52 6 34 6 35-10 28c-23 60-89 105-201 137l-55 17-19 20-19 21 10 17 11 17 51 3 50 3 21-22 21-22h43c24 0 49 3 55 7 33 20-5 84-70 117l-40 20-66 4-67 4-30-9zm573-3c-88-25-154-86-184-169l-14-41v-114l12-34c6-19 24-53 40-76l29-43 42-24 42-25 61-10 60-11 54 10 53 10 45 26 44 26 29 45c15 26 34 62 40 81l12 35-5 61-5 61-26 52-26 51-41 34-40 35-40 12c-23 7-62 14-88 16l-47 5-47-13zm125-121 33-13 26-31 26-31 7-40 7-41-12-34-11-35-39-35-39-35-28-7-27-7-35 19-35 19-19 33c-11 18-23 49-27 68l-8 35 10 37 10 37 40 38 39 37h25c13 0 39-6 57-14zM0 1105v-15h2820v30H0v-15z"/></g><g fill="#040404" transform="matrix(.1 0 0 -.1 0 282)"><path d="M193 1673c4-58 7-180 7-270v-163h65c36 0 65 1 65 3 0 1 5 42 10 91l9 89 9 9 10 10 38-62c22-34 53-81 69-103l31-42 57-3 57-3v14c0 8-20 51-45 96s-45 84-45 88c0 3 18 25 39 48l40 43 11 41 11 40-12 46-11 45-30 25c-16 13-45 29-66 35-41 12-199 29-276 30h-49l6-107zm272-33 18-19v-55l-23-18-22-18h-74l-12 12-12 12v37c0 21 3 44 6 53l6 16h95l18-20zm265-135v-275h350v89l-17 9c-10 5-53 12-96 15l-78 6-15 11-14 12v76l23 6c12 3 57 6 100 6h77v33c0 17-4 38-9 46l-8 13-74 9c-41 4-80 8-87 9h-12l-10 26-10 25 10 19 10 18 105 7 105 7v108H730v-275zm450-2v-273h360v130h-207l-7 202c-4 112-8 204-9 204-1 1-32 4-69 6l-68 4v-273zm515 248c-17-10-43-32-58-50l-26-32-7-36-7-36 19-34 18-34 42-25c23-14 70-36 105-49 34-14 70-32 81-41l18-17v-22c0-11-5-26-12-33l-12-12h-67l-28 15c-16 8-31 21-35 30l-6 16-57-3-58-3-3-22-3-21 33-38 33-37 40-18 40-19h144l28 11c34 13 80 55 99 91l14 27v76l-19 32-20 31-43 25c-24 14-66 32-94 40s-66 22-83 31l-31 17v39l25 16 25 16 37-7 38-7 18-19 19-20 51 3 52 3 3 17 3 18-20 29-21 29-43 21-43 21h-159l-30-19zm577 7c-18-6-53-29-78-51l-45-39-21-41-21-41-5-62-5-61 17-50 17-50 35-42 36-42 42-21 41-21 72-5 73-5 47 14 47 13 52 50 52 51 16 54c20 68 20 104 1 167l-14 49-32 43-31 42-46 27-46 27-85 3-86 2-33-11zm184-123 26-17 19-41 19-42v-67l-16-35-17-34-33-25-33-26-41-5-40-6-39 39-39 39-12 42-13 41 8 38 7 38 44 44 44 45 45-5 45-6 26-17z"/></g></g></svg>