<?xml version="1.0"?><svg version="1.2" baseProfile="tiny-ps" viewBox="0 0 300 300" xmlns="http://www.w3.org/2000/svg" xmlns:xlink="http://www.w3.org/1999/xlink"><title>relso</title><g><g fill="#f8f4e3" transform="matrix(.1 0 0 -.1 0 300)"><path d="M0 1500V0h3000v3000H0V1500z"/></g><g fill="#e1e0d2" transform="matrix(.1 0 0 -.1 0 300)"><path d="M0 1500V0h3000v3000H0V1500zm640 259 45-10 33-32 32-31 11-39 10-39-11-50-12-50-40-28c-22-16-45-31-51-33l-12-4 14-24c8-13 36-61 62-106l48-83H632l-57 106-57 105-21-3-22-3-3-102-3-103H350v540h245l45-11zm550-39v-50H990v-120h170v-90H990v-130h200v-100H860v540h330v-50zm220-175v-225h180v-90h-300v540h120v-225zm545 205 41-20 22-39c12-21 22-46 22-55v-16h-130l-9 24c-10 25-30 36-66 36h-24l-15-16-16-15v-46l18-16c10-9 43-25 73-36 30-10 73-28 96-39l41-21 22-36 22-36-4-44-5-43-23-32-23-32-41-19-41-19h-53c-29 0-73 5-98 11l-45 12-34 40-35 41v46h130v-8c0-5 9-18 20-30l21-22h55l22 16 22 15v45l-20 22-20 21-42 11c-22 7-64 22-93 35l-52 23-21 30-22 30v110l26 32c15 17 41 37 58 45l31 13 74 1 75 1 41-20zm548 4 47-16 44-44 44-44 14-38 13-37v-150l-23-47c-27-56-71-101-121-124l-35-17-67-5-66-4-54 17-53 18-46 46-46 46-17 54c-21 66-22 112-1 182l16 54 52 50 51 51 35 11c19 6 65 11 101 12l65 1 47-16zm-2029-98c-3-7-4-40-2-72l3-59 61-3 61-3 22 18 23 19v77l-23 18-24 19H479l-5-14zm1871 2c-38-13-63-35-81-70l-14-27v-124l22-34 21-35 33-14 33-14h82l29 15c16 8 39 29 52 47l23 33v134l-21 27c-11 15-31 36-45 46l-24 17-40 5-40 5-30-11z"/></g><g fill="#babdb2" transform="matrix(.1 0 0 -.1 0 300)"><path d="M0 1500V0h3000v3000H0V1500zm1957 253 38-18 22-34 23-34v-47h-140v14c0 19-38 46-64 46-11 0-28-7-38-17l-18-16v-47l23-14c12-8 59-28 104-46l82-31 30-35 31-35v-96l-22-33c-13-18-34-41-48-51l-25-19-52-10-53-9-50 9c-61 12-77 20-113 57-27 29-50 86-39 97 3 3 34 6 69 6h63v-14c0-18 47-56 70-56 10 0 29 9 44 21l26 20v36l-22 20-23 20-56 18c-71 22-127 53-151 86l-19 25-1 53v54l19 25c27 36 65 63 104 73l34 8 57-3 57-4 38-19zm524 11 57-16 36-30c20-16 48-50 63-75l26-45 5-73 4-72-16-51-17-51-41-41-40-42-44-19-44-20-58-2-57-1-48 13-47 14-46 40-45 39-21 42-21 41-5 67-5 66 16 46c29 86 89 143 180 172 57 17 100 17 168-2zm-1792-19c19-11 43-32 54-46l19-27 5-45 5-45-11-35-12-36-35-31c-19-16-41-30-49-30-21 0-20-3 29-83 23-40 51-87 60-105l17-33-73 3-72 3-56 100-55 100-17 3-18 3v-211H350v542l153-4 152-3 34-20zm501-25v-50H990v-120h180v-89l-87-3-88-3-3-62-3-63h201v-100H860v540h330v-50zm222-172 3-223 88-3 87-3v-89h-300v540h120l2-222zm902 93-31-19-16-35-17-35v-93l14-32c7-18 25-43 39-56l26-23 44-5 45-5 35 11 35 12 26 38 27 39v60l1 60-17 31-16 32-32 19-32 20h-100l-31-19zm-1834-47v-76l60 4 59 4 21 19 20 18v31c0 17-4 36-8 43-12 18-59 33-108 33h-44v-76z"/></g><g fill="#81867e" transform="matrix(.1 0 0 -.1 0 300)"><path d="M0 1500V0h3000v3000H0V1500zm1922 270c21-6 51-23 69-37 29-25 37-38 53-90l7-23h-151v14c0 18-19 33-52 41l-26 7-21-21c-12-12-21-28-21-36 0-22 36-51 82-64 23-7 65-24 94-38l54-25 20-33 20-32v-96l-21-34-21-34-42-22-41-22-75 1h-75l-42 22-41 22-21 29c-12 16-24 43-27 60l-6 31h137l17-30 17-30h77l12 12 12 12v54l-14 11c-7 6-45 22-85 36-86 29-120 48-146 83l-20 27v112l27 35 28 36 42 15 43 15 50 1c28 1 67-4 87-9zm567-6 53-15 43-40 44-41 22-45 22-46v-142l-20-46c-11-25-34-61-52-81l-31-36-48-23-47-23h-75l-75-1-57 28-57 28-31 39c-17 21-37 55-46 76l-16 38v137l27 54 26 54 42 36 41 36 46 14c25 7 66 14 91 14l45 1 53-16zm-1792-20c15-11 38-36 51-54l22-33v-99l-16-34-17-35-38-22c-21-12-39-26-39-30 0-5 25-51 55-102 30-52 55-96 55-99s-33-6-72-6h-73l-54 100-54 100h-37v-200H350v542l159-4 160-3 28-21zm503-24v-50H990v-110h180v-110H990v-120h210v-100H860v540h340v-50zm212-167 3-218 88-3 87-3v-99h-310v540h130l2-217zm922 97c-11-4-32-22-46-39l-26-30-7-41-7-40 7-40 7-41 25-29 24-30 39-11 38-12 36 7 35 7 29 24c16 14 35 38 42 55l12 30-4 58-4 58-19 27c-11 14-34 33-52 42l-31 15-39-1c-21 0-47-4-59-9zm-1854-55v-65h129l15 22c9 12 16 32 16 43s-7 31-16 43l-15 22H480v-65z"/></g><g fill="#435352" transform="matrix(.1 0 0 -.1 0 300)"><path d="M0 1500V0h3000v3000H0V1500zm688 250 43-24 18-31c11-16 22-44 26-62l6-31-11-43-12-44-35-32c-19-18-41-33-49-33s-14-3-14-8c0-4 27-54 59-110l60-103-13-5c-7-3-42-4-76-2l-63 3-56 102-56 102-17 1h-18v-210H350v562l148-4 147-4 43-24zm510-27 3-53H990v-110h180v-110H990v-120h211l-3-52-3-53-167-3-168-2v560l168-2 167-3 3-52zm220-170 2-223h170v-111l-152 3-153 3-3 265c-1 146 0 271 3 278l5 13 62-3 63-3 3-222zm543 204 44-23 17-30c9-16 20-41 23-56l7-28h-144l-20 25-19 25h-68l-11-21-11-20 14-23 15-23 86-32 86-33 30-25 30-24 11-42 11-41-11-37c-6-20-21-49-33-64l-21-28-41-18-41-19h-55c-30 0-72 5-92 10-65 18-128 87-128 140v20h140l12-25 11-25 25-7 25-6 26 9 26 9 3 26 3 26-15 16c-9 8-52 27-95 42-88 29-124 52-146 95l-15 29v88l23 34 23 34 39 22 40 23h152l44-23zm573-7 48-25 25-29c13-16 34-47 46-70l22-41v-85l-1-85-17-32c-27-51-76-101-126-131l-46-27h-180l-32 18c-18 9-49 32-69 49l-35 31-26 51-26 51-1 76v75l23 46c29 60 74 104 136 135l50 24 80-3 80-3 49-25zM480 1595v-65h116l18 13 18 13v78l-18 13-18 13H480v-65zm1850 47-34-17-20-34-19-34v-112l17-32 16-33 33-16 32-17h82l34 19 34 20 15 30 15 29v121l-18 28c-10 15-32 36-50 46l-32 20h-70l-35-18z"/></g><g fill="#023334" transform="matrix(.1 0 0 -.1 0 300)"><path d="M0 1500V0h3000v3000H0V1500zm1921 279c19-7 49-23 68-37l33-25 14-33c8-18 14-43 14-54v-20h-147l-11 25-11 24-27 7-27 7-16-10-16-10-3-26-3-26 38-19c21-11 62-27 91-37l54-17 34-30 34-30 11-38 12-38-7-36-7-35-25-30c-14-17-41-40-62-53l-37-22h-140l-47 23-48 23-19 26c-10 15-23 44-29 65l-10 37h153l10-22 10-23 44-3 44-3 8 13c5 7 9 21 9 31v17l-32 20c-18 11-58 28-88 36l-55 16-33 25c-17 13-39 37-47 53l-15 29v83l15 31 15 32 34 23c60 41 148 54 217 31zm605-22 51-26 33-37c18-21 41-56 51-78l19-41v-142l-30-59c-35-71-56-92-130-130l-55-29-70 1h-70l-51 26-50 26-38 42c-21 23-46 61-57 84l-19 41v130l20 43c41 90 95 139 185 169l40 13 60-4 60-3 51-26zm-1828-10 42-27 21-42 21-42-4-47-5-48-27-36c-15-19-40-42-56-50l-29-15 40-71c22-39 49-85 60-102 10-18 19-35 19-39v-8H625l-58 105c-32 58-62 105-67 105h-9l-3-102-3-103-72-3-73-3v562l158-3 159-3 41-28zm502-27v-60h-198l-4-50-3-50h185v-110H995l3-55 4-55h198v-120H860v560h340v-60zm220-160v-220h170v-121l-157 3-158 3-3 265c-1 146 0 270 3 277l4 13h141v-220zm935 92c-35-12-52-26-74-62l-21-35v-106l15-29c8-15 27-38 41-49l27-21h99l29 17 29 17 17 36 17 35-1 52v51l-19 33-19 32-35 18-35 19-25-1c-14-1-34-4-45-7zm-1865-52v-60h116l12 12 12 12v63l-18 16-19 17H490v-60z"/></g></g></svg>